# xmcd
#
# Track frame offsets:
#	150
#	14519
#	27770
#	43497
#	59324
#	74620
#	92340
#	107262
#	120649
#	135346
#	152229
#	172001
#	185756
#	201616
#	217062
#	234558
#	252239
#	270115
#	286499
#	300298
#	315088
#
# Disc length: 4404 seconds
#
# Revision: 1
# Processed by: cddbd v1.5.2PL0 Copyright (c) Steve Scherf et al.
# Submitted via: audiograbber 1.83.01
#
DISCID=28113215
DTITLE=DESEJO DE MENINA - CUMPLICIDADE
DYEAR=1900
DGENRE=FORRÓ
TTITLE0=CUMPLICIDADE
TTITLE1=INVERNO
TTITLE2=ONDE EU ERREI
TTITLE3=INEVITÁVEL
TTITLE4=SINTO FALTA DE VOCÊ
TTITLE5=SINAIS
TTITLE6=DE JANEIRO A JANEIRO
TTITLE7=SABE
TTITLE8=COSTUMES E SÓ SEU AMOR
TTITLE9=VAI VIRAR AMOR
TTITLE10=FICA COMIGO
TTITLE11=BABY FALA PRA MIM(CESAR MENOTTI and FABIANO)
TTITLE12=NADA É PARA SEMPRE
TTITLE13=FEITOS UM PRO OUTRO(SUSANA VIEIRA)
TTITLE14=CULPA DO AMOR
TTITLE15=AMOR DE CORPO E ALMA
TTITLE16=PRA SEMPRE EM MEU VIVER
TTITLE17=CADA INSTANTE
TTITLE18=AQUI ESTOU
TTITLE19=MUNDO INTEIRO
TTITLE20=ROLOU SENTIMENTO(MARRETA YOU PLANETA)
EXTD=
EXTT0=
EXTT1=
EXTT2=
EXTT3=
EXTT4=
EXTT5=
EXTT6=
EXTT7=
EXTT8=
EXTT9=
EXTT10=
EXTT11=
EXTT12=
EXTT13=
EXTT14=
EXTT15=
EXTT16=
EXTT17=
EXTT18=
EXTT19=
EXTT20=
PLAYORDER=
